<svg width="11" height="11" viewBox="0 0 11 11" fill="none" xmlns="http://www.w3.org/2000/svg">
<g clip-path="url(#clip0_3192_1585)">
<path opacity="0.5" d="M10.1204 4.25033H1.78711V8.00033C1.78711 8.33185 1.91881 8.64979 2.15323 8.88421C2.38765 9.11863 2.70559 9.25033 3.03711 9.25033H8.87044C9.20196 9.25033 9.51991 9.11863 9.75433 8.88421C9.98875 8.64979 10.1204 8.33185 10.1204 8.00033V4.25033ZM3.87044 3.41699C3.75994 3.41699 3.65396 3.37309 3.57581 3.29495C3.49767 3.21681 3.45378 3.11083 3.45378 3.00033V1.33366C3.45378 1.22315 3.49767 1.11717 3.57581 1.03903C3.65396 0.960891 3.75994 0.916992 3.87044 0.916992C3.98095 0.916992 4.08693 0.960891 4.16507 1.03903C4.24321 1.11717 4.28711 1.22315 4.28711 1.33366V3.00033C4.28711 3.11083 4.24321 3.21681 4.16507 3.29495C4.08693 3.37309 3.98095 3.41699 3.87044 3.41699ZM8.03711 3.41699C7.9266 3.41699 7.82062 3.37309 7.74248 3.29495C7.66434 3.21681 7.62044 3.11083 7.62044 3.00033V1.33366C7.62044 1.22315 7.66434 1.11717 7.74248 1.03903C7.82062 0.960891 7.9266 0.916992 8.03711 0.916992C8.14762 0.916992 8.2536 0.960891 8.33174 1.03903C8.40988 1.11717 8.45378 1.22315 8.45378 1.33366V3.00033C8.45378 3.11083 8.40988 3.21681 8.33174 3.29495C8.2536 3.37309 8.14762 3.41699 8.03711 3.41699Z" fill="#0052CC"/>
<path d="M8.87044 1.75098H8.45378V3.00098C8.45378 3.11148 8.40988 3.21746 8.33174 3.2956C8.2536 3.37374 8.14762 3.41764 8.03711 3.41764C7.9266 3.41764 7.82062 3.37374 7.74248 3.2956C7.66434 3.21746 7.62044 3.11148 7.62044 3.00098V1.75098H4.28711V3.00098C4.28711 3.11148 4.24321 3.21746 4.16507 3.2956C4.08693 3.37374 3.98095 3.41764 3.87044 3.41764C3.75994 3.41764 3.65396 3.37374 3.57581 3.2956C3.49767 3.21746 3.45378 3.11148 3.45378 3.00098V1.75098H3.03711C2.70559 1.75098 2.38765 1.88267 2.15323 2.11709C1.91881 2.35151 1.78711 2.66946 1.78711 3.00098V4.25098H10.1204V3.00098C10.1204 2.66946 9.98875 2.35151 9.75433 2.11709C9.51991 1.88267 9.20196 1.75098 8.87044 1.75098Z" fill="#0052CC"/>
</g>
<defs>
<clipPath id="clip0_3192_1585">
<rect width="10" height="10" fill="white" transform="translate(0.953125 0.0839844)"/>
</clipPath>
</defs>
</svg>
